<svg xmlns="http://www.w3.org/2000/svg" id="Layer_1" viewBox="0 0 487.89 83.08"><g><g><path d="M59.73,3.06h-15.01c-.44,0-.85,.17-1.16,.48L.49,46.23c-.31,.31-.49,.73-.49,1.17v15c0,.91,.74,1.65,1.65,1.65h15.01c.44,0,.85-.17,1.16-.48L60.89,20.88c.31-.31,.49-.73,.49-1.17V4.71c0-.91-.74-1.65-1.65-1.65Z"></path><path d="M1.65,20.4h6.8c.44,0,.86-.17,1.17-.48l7.23-7.23c.31-.31,.48-.73,.48-1.17V4.71c0-.91-.74-1.65-1.65-1.65H1.65c-.91,0-1.65,.74-1.65,1.65v14.04c0,.91,.74,1.65,1.65,1.65Z"></path><path d="M59.73,46.74h-6.8c-.44,0-.86,.17-1.17,.48l-7.23,7.23c-.31,.31-.48,.73-.48,1.17v6.8c0,.91,.74,1.65,1.65,1.65h14.04c.91,0,1.65-.74,1.65-1.65v-14.04c0-.91-.74-1.65-1.65-1.65Z"></path></g><g><path d="M141.48,33.04c0,11.96-4.69,31.04-30.64,31.04h-26.75V1.93h26.75c26.33,0,30.64,19.16,30.64,31.11Zm-14,0c0-7-2.68-18.79-16.64-18.79h-13.24V51.76h13.23c13.87,0,16.65-12.04,16.65-18.72Z"></path><path d="M197.32,42.3h-39.74c.92,6.66,4.91,9.96,13.65,9.96,8.07,0,12.07-2.24,13.31-5.51h13.09c-1.38,10.69-10.03,17.33-26.4,17.33s-26.78-8.58-26.78-25.16,9.95-25.16,26.78-25.16c7.05,0,12.65,1.76,16.87,4.7v-.02c9.63,6.49,10.49,17.03,9.72,23.86h-.5Zm-39.22-8.92h26.3c-1.1-3.73-3.55-7.8-13.17-7.8-7.47,0-11.57,2.75-13.13,7.8Z"></path><path d="M257.72,39.24c0,6.71-2.35,24.93-23.26,24.93-9.36,0-15.05-2.62-18.42-6.96h-.61v25.87h-13.52V14.32h13.52v7.32h.76c3.39-4.42,9.03-7.32,18.24-7.32,21.08,0,23.3,17.66,23.3,24.92Zm-12.9,0c0-3.88-1.37-13.3-14.31-13.3-11.67,0-14.05,6.56-14.05,13.3,0,7.54,2.38,13.3,14.07,13.3,12.84,0,14.28-9.72,14.29-13.3Z"></path><path d="M316.33,38.7c0,17.48-12.68,25.38-27.78,25.38s-27.78-8.15-27.78-25.38,12.68-25.38,27.78-25.38,27.78,8.13,27.78,25.38Zm-13.29,0c0-9.18-6.03-13.04-14.5-13.04s-14.5,3.71-14.5,13.04,6.03,13.05,14.5,13.05,14.5-4,14.5-13.05Z"></path><path d="M368.76,49.31c0,12.36-8.86,14.77-24.15,14.77-11.26,0-19-2.05-23-6.08-3.45-3.48-3.41-7.68-3.39-10.19v-.97h13.88v.43c0,4.26,3.17,6.16,12.15,6.16,5.41,0,10.59-.68,10.59-3.92,0-3.74-4.83-4.45-10.19-5.08-.73-.09-1.44-.17-2.11-.26-14.33-1.89-23.2-5.06-23.2-15,0-6.95,4.01-15.24,23.13-15.24,20.64,0,24.97,9.14,24.97,16.8v.43h-13.75v-.43c0-3.92-3.33-6-11.22-6s-9.13,2.74-9.13,4.27c0,2.19,1.54,3.42,10.22,4.72l1.12,.17c11.29,1.68,24.09,3.58,24.09,15.42Z"></path><path d="M423.78,14.32l-27.5,68.76h-14.7l5.56-15.67-1.53-3.27-19.2-49.82h14.28l14.44,37.48,14.36-37.48h14.28Z"></path><path d="M446.08,43.48h0v1c0,7.25,3.26,6.2,16.17,5.5v13.18s-2.65,.92-16.17,.92-13.52-11.11-13.52-18.35V25.77h-10.99l4.34-11.38h6.65V0h13.52V14.39h16.17v11.38h-16.17v17.71Z"></path></g></g><g><polygon points="463.56 2.12 467.1 2.12 467.1 12.45 469.68 12.45 469.68 2.12 473.2 2.12 473.2 0 463.56 0 463.56 2.12"></polygon><polygon points="484.35 0 481.31 9.22 478.26 0 474.55 0 474.55 12.45 477.05 12.45 477.05 2.93 480.23 12.45 482.28 12.45 485.43 2.94 485.43 12.45 487.89 12.45 487.89 0 484.35 0"></polygon></g></svg>